/* XPM */
static const char * backward_more_xpm[] = {
"45 44 21 1",
" 	c None",
".	c #235766",
"+	c #245767",
"@	c #245665",
"#	c #235666",
"$	c #235667",
"%	c #245766",
"&	c #225766",
"*	c #245865",
"=	c #235866",
"-	c #235765",
";	c #235767",
">	c #235865",
",	c #245866",
"'	c #245666",
")	c #235867",
"!	c #225765",
"~	c #225666",
"{	c #225767",
"]	c #225866",
"^	c #225665",
"                            .            +   ",
"                          @...         +..#  ",
"                         $.....%      ...... ",
"                        ........     ........",
"                       ........    ........& ",
"                     +.......$    ........   ",
"                    ........     .......%    ",
"                   ........    @.......*     ",
"                 #.......=    -.......#      ",
"                ;.......@    #.......        ",
"               .......&     ........         ",
"              ........    >.......%          ",
"            #........    ........            ",
"           ........     ........             ",
"          ........    ........-              ",
"        ........@    -.......@        ....   ",
"       ........,    ........          %      ",
"      =.......    ,........           -      ",
"    @........    '.......%            -      ",
"   ........)    #.......              #..!   ",
"  &.......    .........               .  .   ",
"=-......~    -.......#                    .  ",
"=#......=    &........       &.....       .  ",
"  ........,    =......=      ......       .  ",
"   #.......+    ........@                 %  ",
"     ........    {........           .= ~.   ",
"      ........     ........           =..    ",
"       -........    ........                 ",
"        @........    $.......]               ",
"          .......=     .......&              ",
"           ........@    ........             ",
"            .........    ;.......@           ",
"              ........    #.......=          ",
"               ........     &.......         ",
"                &........    ........        ",
"                 ,.......&    ^.......>      ",
"                   %.......     .......%     ",
"                    *.......@    ........    ",
"                     #.......=    -........  ",
"                       ........    @.......; ",
"                        ........     ........",
"                         %.....,      ...... ",
"                           ...         ....  ",
"                            =            ^   "};
