/* XPM */
static const char * backward_xpm[] = {
"33 44 16 1",
" 	c None",
".	c #235866",
"+	c #235666",
"@	c #235766",
"#	c #235767",
"$	c #245665",
"%	c #245866",
"&	c #235867",
"*	c #245767",
"=	c #235667",
"-	c #225765",
";	c #245766",
">	c #225766",
",	c #225866",
"'	c #235665",
")	c #235765",
"                            .    ",
"                          +@@@   ",
"                         #@@@@@@ ",
"                        @@@@@@@@ ",
"                       @@@@@@@@  ",
"                     +@@@@@@@@   ",
"                    @@@@@@@@     ",
"                   @@@@@@@@      ",
"                 @@@@@@@@$       ",
"                @@@@@@@@%        ",
"               .@@@@@@@          ",
"             $@@@@@@@@           ",
"            @@@@@@@@&            ",
"           @@@@@@@@              ",
"          @@@@@@@@               ",
"        *@@@@@@@=          -@    ",
"       ;@@@@@@@           @>@    ",
"      @@@@@@@@              @    ",
"    %@@@@@@@@               @    ",
"   @@@@@@@@$                @    ",
"  @@@@@@@@                  @    ",
",@@@@@@@@                   @    ",
" '@@@@@@'        >@@@@@     @    ",
"  >@@@@@@@$      @@@@@@     @    ",
"   +@@@@@@@)                @    ",
"     @@@@@@@+               @    ",
"      @@@@@@@@            @@@@@  ",
"       ;@@@@@@@;                 ",
"         @@@@@@@;                ",
"          @@@@@@@@               ",
"           @@@@@@@@+             ",
"            $@@@@@@@#            ",
"              @@@@@@@+           ",
"               @@@@@@@@          ",
"                &@@@@@@@)        ",
"                  @@@@@@@@       ",
"                   @@@@@@@@      ",
"                    @@@@@@@@@    ",
"                     $@@@@@@@@   ",
"                       @@@@@@@@  ",
"                        @@@@@@@@ ",
"                         %@@@@@$ ",
"                           @@@   ",
"                            @    "};
