/* XPM */
static const char * backward_end_xpm[] = {
"36 44 15 1",
" 	c None",
".	c #235766",
"+	c #225766",
"@	c #235866",
"#	c #245665",
"$	c #235765",
"%	c #225765",
"&	c #235666",
"*	c #235767",
"=	c #245866",
"-	c #225767",
";	c #235867",
">	c #245766",
",	c #225665",
"'	c #245865",
"...                            +    ",
"...                           ....  ",
"...                         ....... ",
"...                        @....... ",
"...                       ........  ",
"...                     #........   ",
"...                    $.......%    ",
"...                   ........      ",
"...                  .......+       ",
"...                ........&        ",
"...               +.......          ",
"...              .......&           ",
"...            &.......*            ",
"...           +.......&             ",
"...          .......+               ",
"...         ........                ",
"...       $........                 ",
"...      ........                   ",
"...     .......&                    ",
"...   $........                     ",
"...  *.......=                      ",
"... .......-                        ",
"... +......;                        ",
"...  ;........                      ",
"...   $........                     ",
"...     ........                    ",
"...      ........=                  ",
"...       =.......&                 ",
"...         ........                ",
"...          +.......               ",
"...           *........             ",
"...             .......+            ",
"...              >.......           ",
"...               +.......&         ",
"...                &.......@        ",
"...                  +.......       ",
"...                   ........      ",
"...                    ,........    ",
"...                      ........   ",
"...                       &.......  ",
"...                        '....... ",
"...                         #.....; ",
"...                           ...   ",
"...                            $    "};
