/* XPM */
static const char * forward_end_xpm[] = {
"36 44 15 1",
" 	c None",
".	c #235766",
"+	c #225866",
"@	c #245766",
"#	c #245665",
"$	c #235666",
"%	c #245767",
"&	c #235865",
"*	c #235765",
"=	c #245866",
"-	c #235767",
";	c #225766",
">	c #245667",
",	c #235866",
"'	c #245865",
"    .                            ...",
"  +...                           ...",
" @.....#                         ...",
"$.......%                        ...",
"  .......$                       ...",
"   ........                      ...",
"    @.......&                    ...",
"      ........                   ...",
"       $.......                  ...",
"        *........                ...",
"         #........               ...",
"           ........              ...",
"            ........=            ...",
"             @.......%           ...",
"               ........          ...",
"                ........         ...",
"                 -........       ...",
"                   .......;      ...",
"                    @.......     ...",
"                     ;.......*   ...",
"                      $.......>  ...",
"                        ,......@ ...",
"                       $........ ...",
"                      -.......#  ...",
"                     $.......$   ...",
"                    ........     ...",
"                  *........      ...",
"                 ........        ...",
"                ........         ...",
"              .........          ...",
"             ........=           ...",
"            ........             ...",
"          =........              ...",
"         %.......=               ...",
"        ........                 ...",
"       ........                  ...",
"     ........-                   ...",
"    ........                     ...",
"   ,......@                      ...",
" #.......'                       ...",
",.......&                        ...",
" ;.....                          ...",
"  $...                           ...",
"    .                            ..."};
