/* XPM */
static const char * A_xpm[] = {
"23 26 89 1",
" 	c #FFFFFF",
".	c #646464",
"+	c #000000",
"@	c #606060",
"#	c #F7F7F7",
"$	c #0F0F0F",
"%	c #0D0D0D",
"&	c #F5F5F5",
"*	c #A7A7A7",
"=	c #A4A4A4",
"-	c #494949",
";	c #1D1D1D",
">	c #464646",
",	c #E7E7E7",
"'	c #030303",
")	c #020202",
"!	c #C4C4C4",
"~	c #010101",
"{	c #E6E6E6",
"]	c #8C8C8C",
"^	c #424242",
"/	c #414141",
"(	c #8A8A8A",
"_	c #2E2E2E",
":	c #A1A1A1",
"<	c #9F9F9F",
"[	c #2C2C2C",
"}	c #CFCFCF",
"|	c #0B0B0B",
"1	c #F4F4F4",
"2	c #F3F3F3",
"3	c #0A0A0A",
"4	c #CDCDCD",
"5	c #717171",
"6	c #5D5D5D",
"7	c #5B5B5B",
"8	c #6F6F6F",
"9	c #FBFBFB",
"0	c #171717",
"a	c #BCBCBC",
"b	c #B9B9B9",
"c	c #161616",
"d	c #B4B4B4",
"e	c #FDFDFD",
"f	c #1A1A1A",
"g	c #B3B3B3",
"h	c #565656",
"i	c #797979",
"j	c #757575",
"k	c #555555",
"l	c #F0F0F0",
"m	c #080808",
"n	c #D7D7D7",
"o	c #D3D3D3",
"p	c #EFEFEF",
"q	c #9A9A9A",
"r	c #353535",
"s	c #313131",
"t	c #989898",
"u	c #3B3B3B",
"v	c #949494",
"w	c #8F8F8F",
"x	c #3A3A3A",
"y	c #DDDDDD",
"z	c #060606",
"A	c #ECECEC",
"B	c #E9E9E9",
"C	c #040404",
"D	c #DCDCDC",
"E	c #7F7F7F",
"F	c #505050",
"G	c #4C4C4C",
"H	c #7E7E7E",
"I	c #FEFEFE",
"J	c #222222",
"K	c #C2C2C2",
"L	c #C7C7C7",
"M	c #CACACA",
"N	c #262626",
"O	c #272727",
"P	c #848484",
"Q	c #E1E1E1",
"R	c #E0E0E0",
"S	c #E8E8E8",
"T	c #3F3F3F",
"U	c #8D8D8D",
"V	c #A0A0A0",
"W	c #9C9C9C",
"X	c #2F2F2F",
"         .+++@         ",
"        #$+++%&        ",
"        *+++++=        ",
"        -++;++>        ",
"       ,'+)!~+'{       ",
"       ]++^ /++(       ",
"       _++: <++[       ",
"      }++|1 23++4      ",
"      5++6   7++8      ",
"     90++a   b++c9     ",
"     d++;e   ef++g     ",
"     h++i     j++k     ",
"    lm++n     o++mp    ",
"    q++r       s++t    ",
"    u++v       w++x    ",
"   y++zA       BC++D   ",
"   E++F         G++H   ",
"  IJ+++++++++++++++JI  ",
"  K+++++++++++++++++K  ",
"  .+++++++++++++++++.  ",
" #$++L           M++$# ",
" *++N             O++* ",
" -++P             P++- ",
",'+~Q             R~+'S",
"]++^               T++U",
"_++V               W++X"};
