/* XPM */
static const char * A_xpm[] = {
"50 50 101 2",
"  	c None",
". 	c #4A4D47",
"+ 	c #8E947A",
"@ 	c #E4EFBC",
"# 	c #92997E",
"$ 	c #C8D2A7",
"% 	c #CDD6AA",
"& 	c #6A6E5F",
"* 	c #6D7262",
"= 	c #A5AC8C",
"- 	c #A8B08F",
"; 	c #4E524A",
"> 	c #DAE4B4",
", 	c #A7AF8E",
"' 	c #DCE7B6",
") 	c #50534C",
"! 	c #808670",
"~ 	c #D6E1B1",
"{ 	c #D4DEB0",
"] 	c #838973",
"^ 	c #BBC49D",
"/ 	c #9FA687",
"( 	c #9BA284",
"_ 	c #BEC79F",
": 	c #5C6055",
"< 	c #E3EEBB",
"[ 	c #64685B",
"} 	c #606558",
"| 	c #5F6357",
"1 	c #969D81",
"2 	c #C3CDA3",
"3 	c #C0C9A0",
"4 	c #9AA184",
"5 	c #D0DAAD",
"6 	c #888F76",
"7 	c #858B73",
"8 	c #D3DDAF",
"9 	c #4B4E47",
"0 	c #727765",
"a 	c #DEE9B7",
"b 	c #53564D",
"c 	c #51544C",
"d 	c #DDE8B6",
"e 	c #757A68",
"f 	c #ADB592",
"g 	c #AAB28F",
"h 	c #B0B894",
"i 	c #717665",
"j 	c #6E7362",
"k 	c #DFEAB8",
"l 	c #54584F",
"m 	c #CED8AB",
"n 	c #8B9178",
"o 	c #939A7E",
"p 	c #C6CFA5",
"q 	c #63685A",
"r 	c #E2EDBB",
"s 	c #5A5E53",
"t 	c #666A5C",
"u 	c #9FA788",
"v 	c #BAC39C",
"w 	c #B8C19A",
"x 	c #A1A989",
"y 	c #4D5049",
"z 	c #D7E1B2",
"A 	c #7F856F",
"B 	c #7D836E",
"C 	c #D8E2B3",
"D 	c #7A806C",
"E 	c #4E514A",
"F 	c #D9E3B3",
"G 	c #7C826D",
"H 	c #B6BE99",
"I 	c #A4AC8B",
"J 	c #A2A989",
"K 	c #B7C09A",
"L 	c #585C52",
"M 	c #E1ECBA",
"N 	c #696E5E",
"O 	c #666B5D",
"P 	c #E2EDBA",
"Q 	c #595D52",
"R 	c #91987D",
"S 	c #C8D1A6",
"T 	c #C7D0A5",
"U 	c #93997E",
"V 	c #CBD5A9",
"W 	c #8D947A",
"X 	c #8B9279",
"Y 	c #6D7161",
"Z 	c #A8B08E",
"` 	c #DCE6B6",
" .	c #838972",
"..	c #848A73",
"+.	c #99A083",
"@.	c #BFC8A0",
"#.	c #606457",
"$.	c #B0B995",
"%.	c #A9B18F",
"&.	c #8C9279",
"*.	c #CDD7AB",
". . . . . . . . . . . . . . . . . . . . . . . . . . . . . . . . . . . . . . . . . . . . . . . . . . ",
". . . . . . . . . . . . . . . . . . . . . . . . . . . . . . . . . . . . . . . . . . . . . . . . . . ",
". . . . . . . . . . . . . . . . . . . . . . . . . . . . . . . . . . . . . . . . . . . . . . . . . . ",
". . . . . . . . . . . . . . . . . . . . . . . . . . . . . . . . . . . . . . . . . . . . . . . . . . ",
". . . . . . . . . . . . . . . . . . . . . . . . . . . . . . . . . . . . . . . . . . . . . . . . . . ",
". . . . . . . . . . . . . . . . . . . . . . . . . . . . . . . . . . . . . . . . . . . . . . . . . . ",
". . . . . . . . . . . . . . . . . . . . + @ @ @ @ @ # . . . . . . . . . . . . . . . . . . . . . . . ",
". . . . . . . . . . . . . . . . . . . . $ @ @ @ @ @ % . . . . . . . . . . . . . . . . . . . . . . . ",
". . . . . . . . . . . . . . . . . . . & @ @ @ @ @ @ @ * . . . . . . . . . . . . . . . . . . . . . . ",
". . . . . . . . . . . . . . . . . . . = @ @ @ @ @ @ @ - . . . . . . . . . . . . . . . . . . . . . . ",
". . . . . . . . . . . . . . . . . . ; > @ @ @ , @ @ @ ' ) . . . . . . . . . . . . . . . . . . . . . ",
". . . . . . . . . . . . . . . . . . ! @ @ @ ~ ; { @ @ @ ] . . . . . . . . . . . . . . . . . . . . . ",
". . . . . . . . . . . . . . . . . . ^ @ @ @ / . ( @ @ @ _ . . . . . . . . . . . . . . . . . . . . . ",
". . . . . . . . . . . . . . . . . : < @ @ @ [ . } @ @ @ < | . . . . . . . . . . . . . . . . . . . . ",
". . . . . . . . . . . . . . . . . 1 @ @ @ 2 . . . 3 @ @ @ 4 . . . . . . . . . . . . . . . . . . . . ",
". . . . . . . . . . . . . . . . . 5 @ @ @ 6 . . . 7 @ @ @ 8 9 . . . . . . . . . . . . . . . . . . . ",
". . . . . . . . . . . . . . . . 0 @ @ @ a b . . . c d @ @ @ e . . . . . . . . . . . . . . . . . . . ",
". . . . . . . . . . . . . . . . f @ @ @ f . . . . . g @ @ @ h . . . . . . . . . . . . . . . . . . . ",
". . . . . . . . . . . . . . . b a @ @ @ i . . . . . j @ @ @ k l . . . . . . . . . . . . . . . . . . ",
". . . . . . . . . . . . . . . 6 @ @ @ 5 . . . . . . . m @ @ @ n . . . . . . . . . . . . . . . . . . ",
". . . . . . . . . . . . . . . 2 @ @ @ 1 . . . . . . . o @ @ @ p . . . . . . . . . . . . . . . . . . ",
". . . . . . . . . . . . . . q @ @ @ r : . . . . . . . s r @ @ @ t . . . . . . . . . . . . . . . . . ",
". . . . . . . . . . . . . . u @ @ @ v . . . . . . . . . w @ @ @ x . . . . . . . . . . . . . . . . . ",
". . . . . . . . . . . . . y z @ @ @ A . . . . . . . . . B @ @ @ C y . . . . . . . . . . . . . . . . ",
". . . . . . . . . . . . . D @ @ @ > ; . . . . . . . . . E F @ @ @ G . . . . . . . . . . . . . . . . ",
". . . . . . . . . . . . . H @ @ @ I . . . . . . . . . . . J @ @ @ K . . . . . . . . . . . . . . . . ",
". . . . . . . . . . . . L M @ @ @ N . . . . . . . . . . . O @ @ @ P Q . . . . . . . . . . . . . . . ",
". . . . . . . . . . . . R @ @ @ S . . . . . . . . . . . . . T @ @ @ U . . . . . . . . . . . . . . . ",
". . . . . . . . . . . . V @ @ @ W . . . . . . . . . . . . . X @ @ @ % . . . . . . . . . . . . . . . ",
". . . . . . . . . . . Y @ @ @ @ @ @ @ @ @ @ @ @ @ @ @ @ @ @ @ @ @ @ @ j . . . . . . . . . . . . . . ",
". . . . . . . . . . . Z @ @ @ @ @ @ @ @ @ @ @ @ @ @ @ @ @ @ @ @ @ @ @ - . . . . . . . . . . . . . . ",
". . . . . . . . . . ) ` @ @ @ @ @ @ @ @ @ @ @ @ @ @ @ @ @ @ @ @ @ @ @ ' ) . . . . . . . . . . . . . ",
". . . . . . . . . .  .@ @ @ @ @ @ @ @ @ @ @ @ @ @ @ @ @ @ @ @ @ @ @ @ @ ... . . . . . . . . . . . . ",
". . . . . . . . . . _ @ @ @ ( . . . . . . . . . . . . . . . . . +.@ @ @ @.. . . . . . . . . . . . . ",
". . . . . . . . . | < @ @ @ #.. . . . . . . . . . . . . . . . . | @ @ @ @ | . . . . . . . . . . . . ",
". . . . . . . . . 4 @ @ @ @.. . . . . . . . . . . . . . . . . . . _ @ @ @ 4 . . . . . . . . . . . . ",
". . . . . . . . 9 8 @ @ @ ... . . . . . . . . . . . . . . . . . .  .@ @ @ 8 9 . . . . . . . . . . . ",
". . . . . . . . e @ @ @ ' ) . . . . . . . . . . . . . . . . . . . ) ' @ @ @ e . . . . . . . . . . . ",
". . . . . . . . $.@ @ @ %.. . . . . . . . . . . . . . . . . . . . . - @ @ @ $.. . . . . . . . . . . ",
". . . . . . . l k @ @ @ j . . . . . . . . . . . . . . . . . . . . . * @ @ @ k l . . . . . . . . . . ",
". . . . . . . &.@ @ @ % . . . . . . . . . . . . . . . . . . . . . . . *.@ @ @ X . . . . . . . . . . ",
". . . . . . . T @ @ @ # . . . . . . . . . . . . . . . . . . . . . . . U @ @ @ T . . . . . . . . . . ",
". . . . . . . . . . . . . . . . . . . . . . . . . . . . . . . . . . . . . . . . . . . . . . . . . . ",
". . . . . . . . . . . . . . . . . . . . . . . . . . . . . . . . . . . . . . . . . . . . . . . . . . ",
". . . . . . . . . . . . . . . . . . . . . . . . . . . . . . . . . . . . . . . . . . . . . . . . . . ",
". . . . . . . . . . . . . . . . . . . . . . . . . . . . . . . . . . . . . . . . . . . . . . . . . . ",
". . . . . . . . . . . . . . . . . . . . . . . . . . . . . . . . . . . . . . . . . . . . . . . . . . ",
". . . . . . . . . . . . . . . . . . . . . . . . . . . . . . . . . . . . . . . . . . . . . . . . . . ",
". . . . . . . . . . . . . . . . . . . . . . . . . . . . . . . . . . . . . . . . . . . . . . . . . . ",
". . . . . . . . . . . . . . . . . . . . . . . . . . . . . . . . . . . . . . . . . . . . . . . . . . "};
