/* XPM */
static const char * black_knight_xpm[] = {
"45 45 86 1",
" 	c None",
".	c #000000",
"+	c #515151",
"@	c #686868",
"#	c #2F2F2F",
"$	c #C2C2C2",
"%	c #FFFFFF",
"&	c #CACACA",
"*	c #535353",
"=	c #020202",
"-	c #0C0C0C",
";	c #616161",
">	c #C5C5C5",
",	c #C0C0C0",
"'	c #222222",
")	c #525252",
"!	c #6E6E6E",
"~	c #4E4E4E",
"{	c #E1E1E1",
"]	c #E7E7E7",
"^	c #313131",
"/	c #FEFEFE",
"(	c #121212",
"_	c #B5B5B5",
":	c #EAEAEA",
"<	c #2A2A2A",
"[	c #010101",
"}	c #DADADA",
"|	c #D9D9D9",
"1	c #050505",
"2	c #B6B6B6",
"3	c #D5D5D5",
"4	c #0B0B0B",
"5	c #141414",
"6	c #4D4D4D",
"7	c #0D0D0D",
"8	c #DDDDDD",
"9	c #8E8E8E",
"0	c #696969",
"a	c #505050",
"b	c #404040",
"c	c #FBFBFB",
"d	c #2C2C2C",
"e	c #A8A8A8",
"f	c #A7A7A7",
"g	c #292929",
"h	c #FDFDFD",
"i	c #1D1D1D",
"j	c #B4B4B4",
"k	c #777777",
"l	c #565656",
"m	c #CFCFCF",
"n	c #0A0A0A",
"o	c #F7F7F7",
"p	c #1B1B1B",
"q	c #BFBFBF",
"r	c #626262",
"s	c #040404",
"t	c #949494",
"u	c #929292",
"v	c #030303",
"w	c #818181",
"x	c #9B9B9B",
"y	c #CECECE",
"z	c #939393",
"A	c #252525",
"B	c #F8F8F8",
"C	c #E6E6E6",
"D	c #3F3F3F",
"E	c #585858",
"F	c #BEBEBE",
"G	c #6B6B6B",
"H	c #B0B0B0",
"I	c #7F7F7F",
"J	c #8A8A8A",
"K	c #ABABAB",
"L	c #909090",
"M	c #AFAFAF",
"N	c #B3B3B3",
"O	c #969696",
"P	c #BABABA",
"Q	c #898989",
"R	c #828282",
"S	c #6F6F6F",
"T	c #8B8B8B",
"U	c #484848",
"                                             ",
"                                             ",
"                                             ",
"                                             ",
"                                             ",
"                                             ",
"                    ..                       ",
"             ...   ...                       ",
"             ...  .....                      ",
"             ...........                     ",
"             ...........+@#.                 ",
"             ...........$%%&*=               ",
"            ............-;>%%,'              ",
"           ...)!...........~{%]^             ",
"           ..~/%(...........-_%:<            ",
"          ..[}%|.............12%34           ",
"          ..5%/6..............78%9.          ",
"         ....0a................b/cd          ",
"         .......................e%f.         ",
"        ........................ghci         ",
"        .........................j%k.        ",
"       ..........................l%m.        ",
"      ...........................no/p        ",
"      ............................q%r        ",
"      .stuv.........  ............w%x.       ",
"     ..^%%#........   ............+%y.       ",
"     ..szzv.......    ............A%B=       ",
"     ............    .............1h%i       ",
"      .........     ...............C%D       ",
"      ........      ...............y%E       ",
"       .......     ................F%G.      ",
"           .      .................H%I.      ",
"                 ..................e%J.      ",
"                ...................K%L.      ",
"               ....................M%t.      ",
"               ....................N%O.      ",
"               ....................2%L.      ",
"              .....................P%Q.      ",
"              .....................F%R.      ",
"               ....................STU       ",
"                                             ",
"                                             ",
"                                             ",
"                                             ",
"                                             "};
