/* XPM */
static const char * black_rook_xpm[] = {
"45 45 20 1",
" 	c None",
".	c #000000",
"+	c #424242",
"@	c #888888",
"#	c #414141",
"$	c #787878",
"%	c #777777",
"&	c #2C2C2C",
"*	c #2B2B2B",
"=	c #353535",
"-	c #343434",
";	c #2D2D2D",
">	c #3C3C3C",
",	c #3A3A3A",
"'	c #2F2F2F",
")	c #797979",
"!	c #2E2E2E",
"~	c #4A4A4A",
"{	c #898989",
"]	c #484848",
"                                             ",
"                                             ",
"                                             ",
"                                             ",
"                                             ",
"                                             ",
"            ....    .....    ....            ",
"           ......  .......  ......           ",
"           .......................           ",
"           .......................           ",
"           .......................           ",
"           +@@@@@@@@@@@@@@@@@@@@@#           ",
"            $%%%%%%%%%%%%%%%%%%%$            ",
"             ...................             ",
"              &@@@@@@@@@@@@@@@*              ",
"              +%%%%%%%%%%%%%%%#              ",
"              .................              ",
"              .................              ",
"              .................              ",
"              .................              ",
"              .................              ",
"              .................              ",
"              .................              ",
"              .................              ",
"              .................              ",
"              .................              ",
"              .................              ",
"              .................              ",
"              .................              ",
"              =@@@@@@@@@@@@@@@-              ",
"             .;%%%%%%%%%%%%%%%&.             ",
"             >@@@@@@@@@@@@@@@@@,             ",
"            .')))))))))))))))))!.            ",
"            .....................            ",
"          .~{@@@@@@@@@@@@@@@@@@@{].          ",
"         ..;%%%%%%%%%%%%%%%%%%%%%&..         ",
"         ...........................         ",
"         ...........................         ",
"         ...........................         ",
"         ...........................         ",
"          .........................          ",
"                                             ",
"                                             ",
"                                             ",
"                                             "};
