/* XPM */
static const char * black_king_xpm[] = {
"45 45 152 2",
"  	c None",
". 	c #000000",
"+ 	c #070707",
"@ 	c #525252",
"# 	c #9B9B9B",
"$ 	c #B7B7B7",
"% 	c #B5B5B5",
"& 	c #999999",
"* 	c #555555",
"= 	c #121212",
"- 	c #222222",
"; 	c #757575",
"> 	c #A4A4A4",
", 	c #BBBBBB",
"' 	c #AEAEAE",
") 	c #838383",
"! 	c #2F2F2F",
"~ 	c #2D2D2D",
"{ 	c #D8D8D8",
"] 	c #FFFFFF",
"^ 	c #F0F0F0",
"/ 	c #C5C5C5",
"( 	c #C9C9C9",
"_ 	c #EFEFEF",
": 	c #F3F3F3",
"< 	c #8D8D8D",
"[ 	c #1A1A1A",
"} 	c #323232",
"| 	c #AAAAAA",
"1 	c #FDFDFD",
"2 	c #E0E0E0",
"3 	c #BEBEBE",
"4 	c #D6D6D6",
"5 	c #FAFAFA",
"6 	c #ADADAD",
"7 	c #151515",
"8 	c #232323",
"9 	c #EBEBEB",
"0 	c #E6E6E6",
"a 	c #4F4F4F",
"b 	c #020202",
"c 	c #353535",
"d 	c #A5A5A5",
"e 	c #F4F4F4",
"f 	c #606060",
"g 	c #040404",
"h 	c #8F8F8F",
"i 	c #ECECEC",
"j 	c #808080",
"k 	c #171717",
"l 	c #0F0F0F",
"m 	c #7B7B7B",
"n 	c #D4D4D4",
"o 	c #181818",
"p 	c #F5F5F5",
"q 	c #262626",
"r 	c #1F1F1F",
"s 	c #BABABA",
"t 	c #A3A3A3",
"u 	c #090909",
"v 	c #161616",
"w 	c #C2C2C2",
"x 	c #939393",
"y 	c #0C0C0C",
"z 	c #424242",
"A 	c #F8F8F8",
"B 	c #A6A6A6",
"C 	c #131313",
"D 	c #F7F7F7",
"E 	c #797979",
"F 	c #FCFCFC",
"G 	c #B0B0B0",
"H 	c #030303",
"I 	c #C8C8C8",
"J 	c #F6F6F6",
"K 	c #5B5B5B",
"L 	c #8E8E8E",
"M 	c #3D3D3D",
"N 	c #4B4B4B",
"O 	c #686868",
"P 	c #A9A9A9",
"Q 	c #373737",
"R 	c #444444",
"S 	c #848484",
"T 	c #A1A1A1",
"U 	c #777777",
"V 	c #585858",
"W 	c #212121",
"X 	c #D1D1D1",
"Y 	c #CDCDCD",
"Z 	c #9F9F9F",
"` 	c #B9B9B9",
" .	c #E8E8E8",
"..	c #0B0B0B",
"+.	c #5C5C5C",
"@.	c #5A5A5A",
"#.	c #2B2B2B",
"$.	c #3C3C3C",
"%.	c #ABABAB",
"&.	c #010101",
"*.	c #3F3F3F",
"=.	c #414141",
"-.	c #111111",
";.	c #060606",
">.	c #383838",
",.	c #434343",
"'.	c #787878",
").	c #FEFEFE",
"!.	c #CBCBCB",
"~.	c #050505",
"{.	c #7A7A7A",
"].	c #9D9D9D",
"^.	c #DDDDDD",
"/.	c #E5E5E5",
"(.	c #454545",
"_.	c #E3E3E3",
":.	c #F2F2F2",
"<.	c #4D4D4D",
"[.	c #8A8A8A",
"}.	c #AFAFAF",
"|.	c #BCBCBC",
"1.	c #929292",
"2.	c #888888",
"3.	c #E1E1E1",
"4.	c #595959",
"5.	c #A7A7A7",
"6.	c #D9D9D9",
"7.	c #1E1E1E",
"8.	c #E9E9E9",
"9.	c #535353",
"0.	c #9C9C9C",
"a.	c #8C8C8C",
"b.	c #636363",
"c.	c #080808",
"d.	c #484848",
"e.	c #666666",
"f.	c #6E6E6E",
"g.	c #474747",
"h.	c #6F6F6F",
"i.	c #B1B1B1",
"j.	c #2E2E2E",
"k.	c #4C4C4C",
"l.	c #646464",
"m.	c #1B1B1B",
"n.	c #D5D5D5",
"o.	c #BDBDBD",
"p.	c #767676",
"q.	c #191919",
"r.	c #DEDEDE",
"s.	c #282828",
"t.	c #464646",
"u.	c #CFCFCF",
"                                                                                          ",
"                                                                                          ",
"                                                                                          ",
"                                                                                          ",
"                                                                                          ",
"                                            .                                             ",
"                                            .                                             ",
"                                        . . . . .                                         ",
"                                        . . . . .                                         ",
"                                            .                                             ",
"                                            .                                             ",
"                                          . . .                                           ",
"                                        . . . . .                                         ",
"                                      . . . . . . .                                       ",
"                                      . . . . . . .                                       ",
"                    . . . .           . . . . . . .         . . . .                       ",
"                + @ # $ % & * = .   . . . . . . . . . . . - ; > , ' ) ! .                 ",
"              ~ { ] ^ / ( _ ] : < [ . . . . . . . . . } | 1 1 2 3 4 5 ] 6 7               ",
"            8 9 0 a b . . . c d 5 e f . . . . . . g h ] i j k . . . l m 5 n o             ",
"            > p q . . . . . . . r s ] t u . . . v w ] x y . . . . . . . z A B             ",
"          C D h . . . . . . . . . b E F G H . u I J K . . . . . . . . . . L A =           ",
"          M ] N . . . . . . . . . . . O ] & . P 1 @ . . . . . . . . . . . @ ] Q           ",
"          R ] z . . . . . . . . . . . . S ] T ] U . . . . . . . . . . . . V ] }           ",
"          W ] m . . . . . . . . . . . . g X ] Y b . . . . . . . . . . . . Z : u           ",
"            `  .... . . . . . . . . . . . +.] @.. . . . . . . . . . . . #.F L             ",
"            $.F %.&.. . . . . . . . . . . *.] =.. . . . . . . . . . . -.n i o             ",
"              U ] d ;.. . . . . . . . . . c ] >.. . . . . . . . . . o I D ,.              ",
"                '.).!.Q . . ~.=.{.].w ^./._ : /.^.w ].{.=.~.. . . (._.:.<.                ",
"                  N /.).[.}.:.] 1 2 |.].1.2.2.1.].|.3.1 ] :.}.4.5.).6.!                   ",
"                    7.0 ] 8.# 9.l . . . . . . . . . . l 9.0.8.] 1 a.l                     ",
"                      P b.c.. . . 7.d.e.f.'.'.f.e.g.7.. . . c.h.i.                        ",
"                      . . j.{.|.:.] ] ] ] ] ] ] ] ] ] :.|.{.j.. .                         ",
"                      k.3 ] ] n x l.>.- m.-.-.m.- >.l.x n.] ] o.N                         ",
"                      ] ^.p.q.. . . . . . . . . . . . . . q.U r.]                         ",
"                      s.b . ~.=.{.].w ^./._ _ /.^.w ].{.=.~.. b s.                        ",
"                      &.g.}.:.] 1 2 |.].1.2.2.1.].|.3.1 ] :.}.t.&.                        ",
"                      u.] 8.# 9.l . . . . . . . . . . l 9.0.8.] u.                        ",
"                      i.b.c.. . . . . . . . . . . . . . . . c.l.i.                        ",
"                          . . . . . . . . . . . . . . . . . .                             ",
"                              . . . . . . . . . . . . . .                                 ",
"                                                                                          ",
"                                                                                          ",
"                                                                                          ",
"                                                                                          ",
"                                                                                          "};
