/* XPM */
static const char * black_pawn_xpm[] = {
"45 45 2 1",
" 	c None",
".	c #000000",
"                                             ",
"                                             ",
"                                             ",
"                                             ",
"                                             ",
"                                             ",
"                                             ",
"                                             ",
"                    ....                     ",
"                   ......                    ",
"                  ........                   ",
"                  ........                   ",
"                 ..........                  ",
"                 ..........                  ",
"                  ........                   ",
"                 ..........                  ",
"                ............                 ",
"                ............                 ",
"               ..............                ",
"               ..............                ",
"               ..............                ",
"               ..............                ",
"               ..............                ",
"               ..............                ",
"                ............                 ",
"                ............                 ",
"                ............                 ",
"              ................               ",
"             ..................              ",
"             ..................              ",
"            ....................             ",
"           ......................            ",
"           ......................            ",
"           ......................            ",
"          ........................           ",
"          ........................           ",
"          ........................           ",
"          ........................           ",
"          ........................           ",
"          ........................           ",
"                                             ",
"                                             ",
"                                             ",
"                                             ",
"                                             "};
