/* XPM */
static const char * black_bishop_xpm[] = {
"45 45 20 1",
" 	c None",
".	c #000000",
"+	c #010101",
"@	c #232323",
"#	c #333333",
"$	c #FFFFFF",
"%	c #404040",
"&	c #636363",
"*	c #CCCCCC",
"=	c #D9D9D9",
"-	c #656565",
";	c #BBBBBB",
">	c #111111",
",	c #B9B9B9",
"'	c #131313",
")	c #B0B0B0",
"!	c #797979",
"~	c #CDCDCD",
"{	c #696969",
"]	c #6A6A6A",
"                                             ",
"                                             ",
"                                             ",
"                                             ",
"                                             ",
"                     ...                     ",
"                    .....                    ",
"                   .......                   ",
"                   .......                   ",
"                    .....                    ",
"                    .....                    ",
"                   .......                   ",
"                 ...........                 ",
"                .............                ",
"               ......+@+......               ",
"               ......#$#......               ",
"              .......%$%.......              ",
"              .....&*=$=*&.....              ",
"             ......-;*$*;-......             ",
"             ........%$%........             ",
"             ........#$#........             ",
"             ........+@+........             ",
"             ...................             ",
"              .................              ",
"              .................              ",
"               .>,*********,>.               ",
"                ');;;;;;;;;)'                ",
"               ...............               ",
"               ...............               ",
"              !~*************~!              ",
"              {;;;;;;;;;;;;;;;]              ",
"              .................              ",
"               ...............               ",
"                .............                ",
"                  .........                  ",
"        .............................        ",
"      ................................       ",
"     ..................................      ",
"     ................. .................     ",
"       .                             .       ",
"                                             ",
"                                             ",
"                                             ",
"                                             ",
"                                             "};
