/* XPM */
static const char * black_queen_xpm[] = {
"45 45 60 1",
" 	c None",
".	c #000000",
"+	c #020202",
"@	c #111111",
"#	c #202020",
"$	c #222222",
"%	c #2E2E2E",
"&	c #333333",
"*	c #343434",
"=	c #737373",
"-	c #B3B3B3",
";	c #D9D9D9",
">	c #ECECEC",
",	c #FEFEFE",
"'	c #EEEEEE",
")	c #DFDFDF",
"!	c #DDDDDD",
"~	c #D1D1D1",
"{	c #CCCCCC",
"]	c #D2D2D2",
"^	c #6D6D6D",
"/	c #555555",
"(	c #292929",
"_	c #151515",
":	c #101010",
"<	c #353535",
"[	c #5B5B5B",
"}	c #666666",
"|	c #767676",
"1	c #7F7F7F",
"2	c #888888",
"3	c #999999",
"4	c #9A9A9A",
"5	c #B6B6B6",
"6	c #E7E7E7",
"7	c #F4F4F4",
"8	c #CECECE",
"9	c #A9A9A9",
"0	c #8A8A8A",
"a	c #818181",
"b	c #777777",
"c	c #676767",
"d	c #B5B5B5",
"e	c #727272",
"f	c #6A6A6A",
"g	c #4D4D4D",
"h	c #696969",
"i	c #8B8B8B",
"j	c #949494",
"k	c #9F9F9F",
"l	c #ABABAB",
"m	c #BBBBBB",
"n	c #C7C7C7",
"o	c #303030",
"p	c #6C6C6C",
"q	c #616161",
"r	c #444444",
"s	c #393939",
"t	c #323232",
"u	c #2F2F2F",
"                                             ",
"                                             ",
"                                             ",
"                                             ",
"                                             ",
"                     ...                     ",
"                    .....                    ",
"             ...    .....    ...             ",
"            .....   .....   .....            ",
"            .....    ...    .....            ",
"      ...   .....     .     .....   ...      ",
"     .....   ...      .      ...   .....     ",
"     .....    .      ...      .    .....     ",
"     .....    ..     ...     ..    .....     ",
"      ...     ..     ...     ..     ...      ",
"        ..    ...    ...    ...    ..        ",
"        ..    ...    ...    ...    ..        ",
"        ...   ....  .....  ....   ...        ",
"        ...  .....  .....  .....  ...        ",
"        .... .....  .....  ..... ....        ",
"        .... ...... ..... ...... ....        ",
"        .............................        ",
"        .............................        ",
"        .............................        ",
"        .............................        ",
"        .............................        ",
"         ...........................         ",
"         ...........................         ",
"          .....+@@#$%&*&%$#@@+.....          ",
"           =-;>,'')!~{{{]!)'',>;-=           ",
"           ^/(_+.............+_(/^           ",
"           .......................           ",
"           ...:<[}|1234321|}[<:...           ",
"           =5678930abc}cba039876de           ",
"          .fg_................._gh.          ",
"          ijklmn{{8!!!!!!!8{{nmlkji          ",
"         obpq/rs&&t$$$$$$$t&&sr/qpbu         ",
"         ...........................         ",
"         ...........................         ",
"           .......................           ",
"               ...............               ",
"                                             ",
"                                             ",
"                                             ",
"                                             "};
