/* XPM */
static const char * white_queen_xpm[] = {
"45 45 150 2",
"  	c None",
". 	c #020202",
"+ 	c #000000",
"@ 	c #030303",
"# 	c #3A3A3A",
"$ 	c #B1B1B1",
"% 	c #393939",
"& 	c #919191",
"* 	c #909090",
"= 	c #010101",
"- 	c #B0B0B0",
"; 	c #FFFFFF",
"> 	c #AEAEAE",
", 	c #151515",
"' 	c #2E2E2E",
") 	c #2D2D2D",
"! 	c #999999",
"~ 	c #181818",
"{ 	c #F4F4F4",
"] 	c #F3F3F3",
"^ 	c #171717",
"/ 	c #878787",
"( 	c #868686",
"_ 	c #0D0D0D",
": 	c #161616",
"< 	c #191919",
"[ 	c #040404",
"} 	c #0E0E0E",
"| 	c #0F0F0F",
"1 	c #7A7A7A",
"2 	c #404040",
"3 	c #E2E2E2",
"4 	c #373737",
"5 	c #222222",
"6 	c #212121",
"7 	c #717171",
"8 	c #EAEAEA",
"9 	c #050505",
"0 	c #575757",
"a 	c #565656",
"b 	c #D6D6D6",
"c 	c #666666",
"d 	c #595959",
"e 	c #8C8C8C",
"f 	c #8B8B8B",
"g 	c #414141",
"h 	c #656565",
"i 	c #535353",
"j 	c #9C9C9C",
"k 	c #BDBDBD",
"l 	c #BFBFBF",
"m 	c #BEBEBE",
"n 	c #ABABAB",
"o 	c #9D9D9D",
"p 	c #525252",
"q 	c #252525",
"r 	c #FEFEFE",
"s 	c #424242",
"t 	c #F1F1F1",
"u 	c #F0F0F0",
"v 	c #FBFBFB",
"w 	c #434343",
"x 	c #242424",
"y 	c #F9F9F9",
"z 	c #D5D5D5",
"A 	c #838383",
"B 	c #202020",
"C 	c #797979",
"D 	c #D4D4D4",
"E 	c #7F7F7F",
"F 	c #E4E4E4",
"G 	c #DEDEDE",
"H 	c #808080",
"I 	c #D3D3D3",
"J 	c #A8A8A8",
"K 	c #505050",
"L 	c #4C4C4C",
"M 	c #2F2F2F",
"N 	c #A7A7A7",
"O 	c #F8F8F8",
"P 	c #616161",
"Q 	c #121212",
"R 	c #343434",
"S 	c #282828",
"T 	c #1F1F1F",
"U 	c #080808",
"V 	c #090909",
"W 	c #060606",
"X 	c #111111",
"Y 	c #1C1C1C",
"Z 	c #515151",
"` 	c #7E7E7E",
" .	c #1E1E1E",
"..	c #292929",
"+.	c #303030",
"@.	c #474747",
"#.	c #555555",
"$.	c #1D1D1D",
"%.	c #070707",
"&.	c #757575",
"*.	c #9F9F9F",
"=.	c #C6C6C6",
"-.	c #E3E3E3",
";.	c #8D8D8D",
">.	c #A1A1A1",
",.	c #FDFDFD",
"'.	c #EEEEEE",
").	c #DFDFDF",
"!.	c #DDDDDD",
"~.	c #D1D1D1",
"{.	c #CCCCCC",
"].	c #CBCBCB",
"^.	c #A0A0A0",
"/.	c #262626",
"(.	c #131313",
"_.	c #333333",
":.	c #F6F6F6",
"<.	c #F5F5F5",
"[.	c #0B0B0B",
"}.	c #B9B9B9",
"|.	c #9A9A9A",
"1.	c #7C7C7C",
"2.	c #636363",
"3.	c #4F4F4F",
"4.	c #444444",
"5.	c #0A0A0A",
"6.	c #676767",
"7.	c #818181",
"8.	c #AAAAAA",
"9.	c #BBBBBB",
"0.	c #DCDCDC",
"a.	c #F7F7F7",
"b.	c #EFEFEF",
"c.	c #0C0C0C",
"d.	c #313131",
"e.	c #141414",
"f.	c #323232",
"g.	c #2A2A2A",
"h.	c #969696",
"i.	c #C9C9C9",
"j.	c #FCFCFC",
"k.	c #D8D8D8",
"l.	c #B6B6B6",
"m.	c #494949",
"n.	c #C8C8C8",
"o.	c #E7E7E7",
"p.	c #5E5E5E",
"q.	c #6F6F6F",
"r.	c #777777",
"s.	c #6E6E6E",
"                                                                                          ",
"                                                                                          ",
"                                                                                          ",
"                                                                                          ",
"                                                                                          ",
"                                          . + .                                           ",
"                        @ + + @         . # $ % .           + +                           ",
"                      + . & * = +       + - ; > +         = , , =                         ",
"                      + ' ; ; ) +       . # ! % .       + ~ { ] ^ +                       ",
"          + +         + . / ( = +         . + .         + ~ { ] ^ +         + +           ",
"        = , , =         @ + . @           + +             = _ _ =         = , , =         ",
"      + ~ { ] ^ +         + +             + + +             . +         + ~ { ] ^ +       ",
"      + ~ { ] ^ +         + + +           @ + @             + +         + ~ { ] ^ +       ",
"        = : _ =           + + @           + < +           [ + +           = } , =         ",
"          + + +           + | +           + 1 +           + = +           + + +           ",
"            + + .         + 2 ) @         = 3 =         + | 4 +         . + +             ",
"              + + +       + 2 * +       + 5 ; 6 +       = 7 2 +       + + +               ",
"              + _ .       + 2 8 9 +     9 0 ; a 9       = b 2 +       . _ +               ",
"              . c } @     + 2 ; d @     + e ; f +     @ g ; 2 +     @ | h =               ",
"              [ i j +     + 2 ; k +     + l ; m +     + n ; 2 +     + o p 9               ",
"              + q r s .   + 2 ; r 5 @   = t ; u =   = ^ v ; 2 +   . w r x +               ",
"              + [ y z 9 = + 2 ; ; A = + 6 ; ; ; B + = C ; ; 2 + = 9 b y @ +               ",
"                + D ; E + + 2 ; ; F @ + 0 ; ; ; a + = G ; ; 2 + + H ; I +                 ",
"                + J ; v ' + 2 ; ; ; K + e ; ; ; f + L ; ; ; 2 + M v ; N +                 ",
"                = E O l P + Q R S T } + U V W W 9 + 9 X Y S _ + Z N 8 ` =                 ",
"                . @ = + + + + Q  ...+.w @.#.#.#.@.w +...$.Q + + + + = @ .                 ",
"                + %.&.*.=.-.y ; ; ; ; ; ; ; ; ; ; ; ; ; ; ; y 3 =.*.&.W +                 ",
"                  + ;.; ; ; ; ; ; ; ; ; ; ; ; ; ; ; ; ; ; ; ; ; ; ; e +                   ",
"                  . = >.; ; ; ,.'.'.).!.~.{.].{.~.!.).'.'.,.; ; ; ^.= .                   ",
"                    = W w /.(.= X X B 5 ' _._._.) 5 B X X = (./.s W =                     ",
"                      . +.b 8 ,.; ; ; ; ; ; ; ; ; ; ; ; ; ,.8 b M .                       ",
"                      + + :.; ; ; ; ; ; ; ; ; ; ; ; ; ; ; ; ; <.+ +                       ",
"                      + [.b }.|.1.c 2.#.3.4.w 4.3.#.2.c 1.|.}.z 5.+                       ",
"                      . W M L 6.7.! j 8.- 9.9.9.- 8.j ! 7.6.L M W .                       ",
"                    [ < 0.; ; a.'.8 !.!.{.{.].{.z !.3 '.b.; ; ; D c.+                     ",
"                    + _.d.Y 5.W X e.5 5 f._._._.g.5 $.X | . (.q 4.Y =                     ",
"                  + V h.i.3 { ; ; ; ; ; ; ; ; ; ; ; ; ; ; j.8 k.l.m.+                     ",
"                  = Y n.o.,.; ; ; ; ; ; ; ; ; ; ; ; ; ; ; ; ; ,.o.8.+                     ",
"                    . + + @ : f.L #.p.c q.r.r.r.s.c p.#.L f.: @ + + @                     ",
"                          + + + . . . . = + + + = . . . . + + +                           ",
"                                                                                          ",
"                                                                                          ",
"                                                                                          ",
"                                                                                          ",
"                                                                                          "};
