/* XPM */
static const char * white_knight_xpm[] = {
"45 45 117 2",
"  	c None",
". 	c #000000",
"+ 	c #010101",
"@ 	c #3C3C3C",
"# 	c #959595",
"$ 	c #121212",
"% 	c #A1A1A1",
"& 	c #3B3B3B",
"* 	c #020202",
"= 	c #5C5C5C",
"- 	c #FFFFFF",
"; 	c #333333",
"> 	c #030303",
", 	c #515151",
"' 	c #E2E2E2",
") 	c #535353",
"! 	c #444444",
"~ 	c #505050",
"{ 	c #E4E4E4",
"] 	c #9A9A9A",
"^ 	c #222222",
"/ 	c #050505",
"( 	c #040404",
"_ 	c #838383",
": 	c #D6D6D6",
"< 	c #969696",
"[ 	c #0C0C0C",
"} 	c #E7E7E7",
"| 	c #DFDFDF",
"1 	c #636363",
"2 	c #A0A0A0",
"3 	c #ADADAD",
"4 	c #919191",
"5 	c #C6C6C6",
"6 	c #202020",
"7 	c #656565",
"8 	c #B1B1B1",
"9 	c #EDEDED",
"0 	c #EBEBEB",
"a 	c #363636",
"b 	c #111111",
"c 	c #EEEEEE",
"d 	c #252525",
"e 	c #262626",
"f 	c #282828",
"g 	c #B2B2B2",
"h 	c #D5D5D5",
"i 	c #060606",
"j 	c #FAFAFA",
"k 	c #AFAFAF",
"l 	c #999999",
"m 	c #868686",
"n 	c #B4B4B4",
"o 	c #2B2B2B",
"p 	c #4E4E4E",
"q 	c #F6F6F6",
"r 	c #181818",
"s 	c #464646",
"t 	c #D9D9D9",
"u 	c #7F7F7F",
"v 	c #8D8D8D",
"w 	c #CDCDCD",
"x 	c #FCFCFC",
"y 	c #3F3F3F",
"z 	c #ECECEC",
"A 	c #4F4F4F",
"B 	c #FEFEFE",
"C 	c #696969",
"D 	c #545454",
"E 	c #D0D0D0",
"F 	c #737373",
"G 	c #A2A2A2",
"H 	c #525252",
"I 	c #F8F8F8",
"J 	c #585858",
"K 	c #191919",
"L 	c #C1C1C1",
"M 	c #6B6B6B",
"N 	c #6D6D6D",
"O 	c #E6E6E6",
"P 	c #393939",
"Q 	c #3D3D3D",
"R 	c #232323",
"S 	c #CECECE",
"T 	c #B0B0B0",
"U 	c #787878",
"V 	c #5D5D5D",
"W 	c #343434",
"X 	c #FBFBFB",
"Y 	c #6C6C6C",
"Z 	c #707070",
"` 	c #C2C2C2",
" .	c #8A8A8A",
"..	c #161616",
"+.	c #626262",
"@.	c #F3F3F3",
"#.	c #BBBBBB",
"$.	c #D3D3D3",
"%.	c #B3B3B3",
"&.	c #070707",
"*.	c #424242",
"=.	c #828282",
"-.	c #676767",
";.	c #131313",
">.	c #3E3E3E",
",.	c #323232",
"'.	c #171717",
").	c #353535",
"!.	c #EFEFEF",
"~.	c #313131",
"{.	c #090909",
"].	c #DCDCDC",
"^.	c #808080",
"/.	c #434343",
"(.	c #1A1A1A",
"_.	c #414141",
":.	c #0D0D0D",
"                                                                                          ",
"                                                                                          ",
"                                                                                          ",
"                                                                                          ",
"                                                                                          ",
"                                                                                          ",
"                                        . .                                               ",
"                          . . .       + . .                                               ",
"                          . @ .     . . # $ .                                             ",
"                          . % & * . + = - ; . .                                           ",
"                          > , ' ) ! ~ { - ] ^ / . . ( .                                   ",
"                          + _ - - - - - - - - - : < ! > + .                               ",
"                        + [ } - - - - - - - - - - - - | 1 + *                             ",
"                      . . 2 3 4 - - - - - - - - - - - - - 5 6 *                           ",
"                      + 7 8 + . 9 - - - - - - - - - - - - - 0 a *                         ",
"                    > b c d . e - - - - - - - - - - - - - - - c f >                       ",
"                    . # 0 . + g - - - - - - - - - - - - - - - - h i +                     ",
"                  / d j - < k - - - - - - - - # l - - - - - - - - m .                     ",
"                  . n - - - - - - - - - - - - o p - - - - - - - - q r >                   ",
"                > s - - - - - - - - - - - - t * u - - - - - - - - - v .                   ",
"                + w - - - - - - - - - - - x y > 0 - - - - - - - - - z i .                 ",
"              > A - - - - - - - - - - - B C . * - - - - - - - - - - - D (                 ",
"            . + E - - - - - - - - - - B F . . / - - - - - - - - - - - G .                 ",
"            > H - - - - - - - - - - I J . . . K - - - - - - - - - - - 0 +                 ",
"            . L M N x - - - - - - O P +     > Q - - - - - - - - - - - - R .               ",
"          . K S . . E - - - - - T b *       + U - - - - - - - - - - - - V >               ",
"          . W X Y Y x - - - j Z . (         . ` - - - - - - - - - - - -  ..               ",
"          . ..B - x +.1 j @.y . .         ( o - - - - - - - - - - - - - k .               ",
"            . #.- $.. . ' p +           . . %.- - - - - - - - - - - - - $..               ",
"            > &.*.W . a =..             . -.- - - - - - - - - - - - - - 9 .               ",
"              . > ( + ;.. .           * >.j - - - - - - - - - - - - - - B / .             ",
"                      .             * ,.c - - - - - - - - - - - - - - - - '..             ",
"                                  * ).!.- - - - - - - - - - - - - - - - - e .             ",
"                                > d 9 - - - - - - - - - - - - - - - - - - ~..             ",
"                              + {.].- - - - - - - - - - - - - - - - - - - & .             ",
"                              + ^.- - - - - - - - - - - - - - - - - - - - /.+             ",
"                              . ' - - - - - - - - - - - - - - - - - - - - *..             ",
"                            . (.- - - - - - - - - - - - - - - - - - - - - _..             ",
"                            . {.; ; ; ; ; ; ; ; ; ; ; ; ; ; ; ; ; ; ; ; ; :..             ",
"                              . . . . . . . . . . . . . . . . . . . . . . .               ",
"                                                                                          ",
"                                                                                          ",
"                                                                                          ",
"                                                                                          ",
"                                                                                          "};
