/* XPM */
static const char * white_king_xpm[] = {
"45 45 122 2",
"  	c None",
". 	c #000000",
"+ 	c #030303",
"@ 	c #050505",
"# 	c #303030",
"$ 	c #020202",
"% 	c #111111",
"& 	c #CCCCCC",
"* 	c #FFFFFF",
"= 	c #CBCBCB",
"- 	c #A5A5A5",
"; 	c #A4A4A4",
"> 	c #F2F2F2",
", 	c #F1F1F1",
"' 	c #010101",
") 	c #040404",
"! 	c #161616",
"~ 	c #434343",
"{ 	c #212121",
"] 	c #FBFBFB",
"^ 	c #FAFAFA",
"/ 	c #3F3F3F",
"( 	c #444444",
"_ 	c #2F2F2F",
": 	c #151515",
"< 	c #ACACAC",
"[ 	c #FDFDFD",
"} 	c #D7D7D7",
"| 	c #747474",
"1 	c #101010",
"2 	c #DCDCDC",
"3 	c #DBDBDB",
"4 	c #656565",
"5 	c #CDCDCD",
"6 	c #E3E3E3",
"7 	c #6F6F6F",
"8 	c #131313",
"9 	c #E1E1E1",
"0 	c #E8E8E8",
"a 	c #484848",
"b 	c #999999",
"c 	c #707070",
"d 	c #232323",
"e 	c #B4B4B4",
"f 	c #A0A0A0",
"g 	c #FEFEFE",
"h 	c #898989",
"i 	c #1B1B1B",
"j 	c #D0D0D0",
"k 	c #323232",
"l 	c #EDEDED",
"m 	c #8E8E8E",
"n 	c #171717",
"o 	c #FCFCFC",
"p 	c #838383",
"q 	c #686868",
"r 	c #F9F9F9",
"s 	c #222222",
"t 	c #181818",
"u 	c #EAEAEA",
"v 	c #141414",
"w 	c #5A5A5A",
"x 	c #545454",
"y 	c #B7B7B7",
"z 	c #4E4E4E",
"A 	c #636363",
"B 	c #F5F5F5",
"C 	c #1F1F1F",
"D 	c #4B4B4B",
"E 	c #AAAAAA",
"F 	c #C7C7C7",
"G 	c #BFBFBF",
"H 	c #8D8D8D",
"I 	c #2B2B2B",
"J 	c #D5D5D5",
"K 	c #0C0C0C",
"L 	c #525252",
"M 	c #E2E2E2",
"N 	c #3E3E3E",
"O 	c #E6E6E6",
"P 	c #BEBEBE",
"Q 	c #858585",
"R 	c #626262",
"S 	c #3D3D3D",
"T 	c #1A1A1A",
"U 	c #0F0F0F",
"V 	c #060606",
"W 	c #CACACA",
"X 	c #A1A1A1",
"Y 	c #B8B8B8",
"Z 	c #505050",
"` 	c #0D0D0D",
" .	c #6D6D6D",
"..	c #777777",
"+.	c #1E1E1E",
"@.	c #B9B9B9",
"#.	c #848484",
"$.	c #646464",
"%.	c #F0F0F0",
"&.	c #080808",
"*.	c #757575",
"=.	c #F7F7F7",
"-.	c #919191",
";.	c #878787",
">.	c #D1D1D1",
",.	c #313131",
"'.	c #6C6C6C",
").	c #9B9B9B",
"!.	c #DDDDDD",
"~.	c #E4E4E4",
"{.	c #EEEEEE",
"].	c #2A2A2A",
"^.	c #191919",
"/.	c #888888",
"(.	c #8A8A8A",
"_.	c #8B8B8B",
":.	c #2E2E2E",
"<.	c #989898",
"[.	c #E5E5E5",
"}.	c #2D2D2D",
"|.	c #333333",
"1.	c #939393",
"                                                                                          ",
"                                                                                          ",
"                                                                                          ",
"                                                                                          ",
"                                                                                          ",
"                                            .                                             ",
"                                            .                                             ",
"                                        . . . . .                                         ",
"                                        . . . . .                                         ",
"                                            .                                             ",
"                                            .                                             ",
"                                          . . .                                           ",
"                                        + @ # @ +                                         ",
"                                      $ % & * = % $                                       ",
"                                      . - * * * ; .                                       ",
"                    . + $ .           $ > * * * , '         . ' ) .                       ",
"                + . ! ~ ~ { . ' .   . ' ] * * * ^ ' . . $ . ! / ( _ $ ' .                 ",
"              + : < [ * * * } | 1 $ . . 2 * * * 3 . + + 4 5 * * * * 6 7 $ +               ",
"            + 8 9 * * * * * * * 0 a . ' b * * * c $ d 5 * * * * * * * * e @ '             ",
"            . f * * * * * * * * * g h . i [ * j @ k l * * * * * * * * * * m .             ",
"          . n o * * * * * * * * * * * p . q r s t u * * * * * * * * * * * ] v .           ",
"          @ w * * * * * * * * * * * * * q ' x . y * * * * * * * * * * * * * z )           ",
"          ) A * * * * * * * * * * * * * B C . ( * * * * * * * * * * * * * * D )           ",
"          ' _ * * * * * * * * * * * * * * f . E * * * * * * * * * * * * * B % .           ",
"            . F * * * * * * * * * * * * * G . G * * * * * * * * * * * * * H .             ",
"            + I B * * * * * * * * * * * * G . G * * * * * * * * * * * * J K '             ",
"              ' L r * * * * * * * * * * * G . G * * * * * * * * * * * M C +               ",
"                ' N O * * * ^ P Q R S s T U V t s S R Q P ^ * * * * W t +                 ",
"                  $ v X Y Z ` . $ C ~ R  ..... .R ~ +.$ . ` Z @.r #.) +                   ",
"                    + . . ! $.< %.* * * * * * * * * * %.< A ! . &.. '                     ",
"                      . *.=.* * * 9 y b -.;.;.-.b Y 9 * * * =.| .                         ",
"                      . G >.Q ~ ` . . . . . . . . . . ` ~ Q >.G .                         ",
"                      . ,.. . I '.).F !.~.{.{.~.!.F ).'.].. . ,..                         ",
"                      . ^.h O * * * * * * * * * * * * * * O /.^..                         ",
"                      . P * ^ P Q R S s T 1 1 T s S R Q P ^ * P .                         ",
"                      . (.Z ` . $ C ~ R  ..... .R ~ +.$ . ` Z _..                         ",
"                      . . ! $.< %.* * * * * * * * * * %.< A ! . .                         ",
"                      ' . :.<.O * * * * * * * * * * * * [.<.}.. '                         ",
"                          ) . ' |.q 1.y W 2 2 W y 1.q |.' . @                             ",
"                              . ' + . . . . . . . . + ' .                                 ",
"                                                                                          ",
"                                                                                          ",
"                                                                                          ",
"                                                                                          ",
"                                                                                          "};
