/* XPM */
static const char * white_bishop_xpm[] = {
"45 45 100 2",
"  	c None",
". 	c #010101",
"+ 	c #000000",
"@ 	c #5D5D5D",
"# 	c #B0B0B0",
"$ 	c #5C5C5C",
"% 	c #1D1D1D",
"& 	c #FDFDFD",
"* 	c #FFFFFF",
"= 	c #1B1B1B",
"- 	c #5E5E5E",
"; 	c #030303",
"> 	c #3C3C3C",
", 	c #797979",
"' 	c #3B3B3B",
") 	c #393939",
"! 	c #C9C9C9",
"~ 	c #C8C8C8",
"{ 	c #383838",
"] 	c #898989",
"^ 	c #FEFEFE",
"/ 	c #878787",
"( 	c #020202",
"_ 	c #050505",
": 	c #ADADAD",
"< 	c #DCDCDC",
"[ 	c #ABABAB",
"} 	c #040404",
"| 	c #9D9D9D",
"1 	c #CCCCCC",
"2 	c #9B9B9B",
"3 	c #515151",
"4 	c #BFBFBF",
"5 	c #505050",
"6 	c #DBDBDB",
"7 	c #9C9C9C",
"8 	c #333333",
"9 	c #262626",
"0 	c #D9D9D9",
"a 	c #9A9A9A",
"b 	c #444444",
"c 	c #757575",
"d 	c #747474",
"e 	c #888888",
"f 	c #737373",
"g 	c #727272",
"h 	c #2E2E2E",
"i 	c #2C2C2C",
"j 	c #B2B2B2",
"k 	c #B1B1B1",
"l 	c #0C0C0C",
"m 	c #AFAFAF",
"n 	c #0B0B0B",
"o 	c #0E0E0E",
"p 	c #303030",
"q 	c #090909",
"r 	c #404040",
"s 	c #252525",
"t 	c #E8E8E8",
"u 	c #CACACA",
"v 	c #080808",
"w 	c #1A1A1A",
"x 	c #3F3F3F",
"y 	c #F2F2F2",
"z 	c #F1F1F1",
"A 	c #3E3E3E",
"B 	c #151515",
"C 	c #707070",
"D 	c #BCBCBC",
"E 	c #6F6F6F",
"F 	c #0F0F0F",
"G 	c #585858",
"H 	c #A6A6A6",
"I 	c #F9F9F9",
"J 	c #A5A5A5",
"K 	c #575757",
"L 	c #171717",
"M 	c #4F4F4F",
"N 	c #7B7B7B",
"O 	c #949494",
"P 	c #A8A8A8",
"Q 	c #AAAAAA",
"R 	c #AEAEAE",
"S 	c #C0C0C0",
"T 	c #D2D2D2",
"U 	c #EAEAEA",
"V 	c #F5F5F5",
"W 	c #CECECE",
"X 	c #E9E9E9",
"Y 	c #D1D1D1",
"Z 	c #4D4D4D",
"` 	c #070707",
" .	c #D4D4D4",
"..	c #7C7C7C",
"+.	c #696969",
"@.	c #656565",
"#.	c #666666",
"$.	c #595959",
"%.	c #363636",
"&.	c #060606",
"                                                                                          ",
"                                                                                          ",
"                                                                                          ",
"                                                                                          ",
"                                                                                          ",
"                                          . + .                                           ",
"                                        + @ # $ +                                         ",
"                                      + % & * & = +                                       ",
"                                      + % & * & = +                                       ",
"                                        + - # $ +                                         ",
"                                        + . + . +                                         ",
"                                      ; + > , ' + ;                                       ",
"                                  + + ) ! * * * ~ { + +                                   ",
"                                ; ; ] ^ * * * * * ^ / ( ;                                 ",
"                              ; _ : * * * ^ < ^ * * * [ } ;                               ",
"                              + | * * * * 1 + 1 * * * * 2 +                               ",
"                            ( 3 * * * * * 4 + 4 * * * * * 5 (                             ",
"                            . 6 * * * 7 8 9 + 9 8 7 * * * 0 .                             ",
"                          } ' * * * * a b 8 + 8 b a * * * * ) }                           ",
"                          ( c * * * * * * 4 + 4 * * * * * * d (                           ",
"                          + e * * * * * * 1 + 1 * * * * * * / +                           ",
"                          ( f * * * * * * ^ < ^ * * * * * * g (                           ",
"                          ; h * * * * * * * * * * * * * * * i ;                           ",
"                            + j * * * * * * * * * * * * * k +                             ",
"                            } l # * * * * * * * * * * * m n }                             ",
"                              ( + o p 8 8 8 8 8 8 8 p o + (                               ",
"                                + q r b b b b b b b r q +                                 ",
"                              ; s t * * * * * * * * * t s ;                               ",
"                              . u * * * * * * * * * * * ! .                               ",
"                            + v 8 8 8 8 8 8 8 8 8 8 8 8 8 v +                             ",
"                            ( w b b b b b b b b b b b b b w (                             ",
"                            } x y * * * * * * * * * * * z A }                             ",
"                              . B C D t * * * * * t D E B .                               ",
"                                ( ; + + q o F o q + + ; (                                 ",
"                                    + + . + } + . + +                                     ",
"                + ; + + + + + + + + + o G H I J K o + + + + + + + + + ; +                 ",
"            ( + L M N O P Q Q R S T U * * V W V * * X Y 4 R Q Q P O N Z ` (               ",
"          + + ,  .J ..+.@.#.#.#.#.#.#.$.%.&.+ &.%.$.#.#.#.#.#.#.@.+...J 4 Z +             ",
"          + + + + + ( ; ( ( ( ( ( ( ( ; + +   + + ; ( ( ( ( ( ( ( ; ( + + + + +           ",
"              +                                                           +               ",
"                                                                                          ",
"                                                                                          ",
"                                                                                          ",
"                                                                                          ",
"                                                                                          "};
