/* XPM */
static const char * white_rook_xpm[] = {
"45 45 28 1",
" 	c None",
".	c #000000",
"+	c #444444",
"@	c #888888",
"#	c #7F7F7F",
"$	c #FFFFFF",
"%	c #D2D2D2",
"&	c #DDDDDD",
"*	c #3B3B3B",
"=	c #777777",
"-	c #030303",
";	c #272727",
">	c #494949",
",	c #0A0A0A",
"'	c #B2B2B2",
")	c #737373",
"!	c #727272",
"~	c #222222",
"{	c #3F3F3F",
"]	c #333333",
"^	c #070707",
"/	c #5A5A5A",
"(	c #3A3A3A",
"_	c #5B5B5B",
":	c #121212",
"<	c #999999",
"[	c #4D4D4D",
"}	c #484848",
"                                             ",
"                                             ",
"                                             ",
"                                             ",
"                                             ",
"                                             ",
"            ....    .....    ....            ",
"           .+@@+.  .+@@@+.  .+@@+.           ",
"           .#$$#....#$$$#....#$$#.           ",
"           .#$$%@@@@&$$$%@@@@&$$#.           ",
"           .#$$$$$$$$$$$$$$$$$$$#.           ",
"           .*===================*.           ",
"            -;>>>>>>>>>>>>>>>>>;-            ",
"             ,'$$$$$$$$$$$$$$$',             ",
"              ,)=============!,              ",
"              .~+++++++++++++~.              ",
"              .#$$$$$$$$$$$$$#.              ",
"              .#$$$$$$$$$$$$$#.              ",
"              .#$$$$$$$$$$$$$#.              ",
"              .#$$$$$$$$$$$$$#.              ",
"              .#$$$$$$$$$$$$$#.              ",
"              .#$$$$$$$$$$$$$#.              ",
"              .#$$$$$$$$$$$$$#.              ",
"              .#$$$$$$$$$$$$$#.              ",
"              .#$$$$$$$$$$$$$#.              ",
"              .#$$$$$$$$$$$$$#.              ",
"              .#$$$$$$$$$$$$$#.              ",
"              .#$$$$$$$$$$$$$#.              ",
"              .#$$$$$$$$$$$$$#.              ",
"              .{#############{.              ",
"             .]+++++++++++++++].             ",
"             .*===============*.             ",
"            ^/(((((((((((((((((_^            ",
"            :$$$$$$$$$$$$$$$$$$$:            ",
"          ..,<<<<<<<<<<<<<<<<<<<,..          ",
"         .{#[}}}}}}}}}}}}}}}}}}}[#{.         ",
"         .#$$$$$$$$$$$$$$$$$$$$$$$#.         ",
"         .#$$$$$$$$$$$$$$$$$$$$$$$#.         ",
"         .#$$$$$$$$$$$$$$$$$$$$$$$#.         ",
"         .{#######################{.         ",
"          .........................          ",
"                                             ",
"                                             ",
"                                             ",
"                                             "};
