/* XPM */
static const char * white_pawn_xpm[] = {
"45 45 62 1",
" 	c None",
".	c #000000",
"+	c #030303",
"@	c #020202",
"#	c #2C2C2C",
"$	c #2B2B2B",
"%	c #010101",
"&	c #242424",
"*	c #D3D3D3",
"=	c #FFFFFF",
"-	c #D5D5D5",
";	c #D1D1D1",
">	c #CFCFCF",
",	c #2E2E2E",
"'	c #272727",
")	c #262626",
"!	c #D2D2D2",
"~	c #D0D0D0",
"{	c #626262",
"]	c #7D7D7D",
"^	c #FCFCFC",
"/	c #FBFBFB",
"(	c #7B7B7B",
"_	c #7C7C7C",
":	c #040404",
"<	c #1E1E1E",
"[	c #1C1C1C",
"}	c #828282",
"|	c #7F7F7F",
"1	c #ADADAD",
"2	c #ABABAB",
"3	c #AFAFAF",
"4	c #848484",
"5	c #818181",
"6	c #222222",
"7	c #7E7E7E",
"8	c #868686",
"9	c #090909",
"0	c #5D5D5D",
"a	c #E4E4E4",
"b	c #E3E3E3",
"c	c #575757",
"d	c #EDEDED",
"e	c #ECECEC",
"f	c #555555",
"g	c #767676",
"h	c #747474",
"i	c #373737",
"j	c #343434",
"k	c #CCCCCC",
"l	c #C8C8C8",
"m	c #525252",
"n	c #4D4D4D",
"o	c #B5B5B5",
"p	c #B2B2B2",
"q	c #0E0E0E",
"r	c #0D0D0D",
"s	c #4A4A4A",
"t	c #484848",
"u	c #9C9C9C",
"v	c #9A9A9A",
"w	c #BBBBBB",
"                                             ",
"                                             ",
"                                             ",
"                                             ",
"                                             ",
"                                             ",
"                                             ",
"                                             ",
"                    ....                     ",
"                   +@#$%+                    ",
"                  +&*==-&+                   ",
"                  @;====>%                   ",
"                 .,======$.                  ",
"                 .'======).                  ",
"                  %!====~%                   ",
"                 ..{===={..                  ",
"                .%]^====/(%.                 ",
"                ._========(.                 ",
"               :<^========/[+                ",
"               .}==========|.                ",
"               .1==========2.                ",
"               .3==========1.                ",
"               .4==========5%                ",
"               +&/========/6+                ",
"                .5========7.                 ",
"                %.8======4.%                 ",
"                %90a====b09@                 ",
"              ..cd========ef..               ",
"             ..}============7..              ",
"             .g==============h.              ",
"            +i/==============/j+             ",
"           .%k================l%.            ",
"           +m==================n+            ",
"           .o==================p.            ",
"          .q^==================/r.           ",
"          :s====================t:           ",
"          %|====================_%           ",
"          .u====================v.           ",
"          .]wwwwwwwwwwwwwwwwwwww_.           ",
"          ........................           ",
"                                             ",
"                                             ",
"                                             ",
"                                             ",
"                                             "};
